<?xml version="1.0" encoding="UTF-8"?>
<svg xmlns="http://www.w3.org/2000/svg" xmlns:xlink="http://www.w3.org/1999/xlink" width="1365px" height="1365px" viewBox="0 0 768 768" version="1.1">
  <g id="surface1">
    <path style=" stroke:none;fill-rule:nonzero;fill:rgb(0%,0%,0%);fill-opacity:1;" d="M 0 384 L 0 768 L 768 768 L 768 0 L 0 0 Z M 414 73.875 C 465.074219 80.175781 509.925781 97.351562 551.773438 126.523438 C 612.976562 169.125 656.023438 232.273438 673.949219 305.625 C 685.800781 354.523438 685.949219 405.226562 674.175781 454.5 C 656.476562 528.824219 608.925781 595.875 544.351562 637.726562 C 521.851562 652.351562 496.875 664.273438 472.125 672.300781 C 463.425781 675.074219 452.773438 678.074219 452.625 677.773438 C 452.550781 677.699219 452.175781 675.601562 451.726562 673.125 C 450.898438 668.699219 450.976562 668.550781 453.449219 664.5 C 458.625 656.023438 461.25 645.601562 461.25 632.925781 C 461.25 622.199219 459.601562 615.148438 454.949219 605.699219 L 451.574219 599.023438 L 453.75 594.824219 C 456.898438 588.675781 458.25 582.148438 458.25 572.25 C 458.25 559.648438 456.074219 551.699219 449.773438 541.648438 L 446.851562 537 L 450.074219 521.023438 L 453.226562 505.050781 L 470.550781 502.125 C 486.75 499.351562 488.851562 499.125 502.125 499.199219 C 514.648438 499.199219 517.800781 499.5 527.625 501.375 C 537.074219 503.25 540.75 503.550781 550.875 503.550781 C 562.050781 503.625 563.25 503.476562 568.800781 501.523438 C 572.023438 500.398438 576.300781 498.523438 578.175781 497.476562 C 584.324219 493.875 593.625 486.300781 600.449219 479.023438 C 604.125 475.125 609.675781 469.949219 612.824219 467.398438 C 622.5 459.601562 627.226562 452.550781 629.699219 442.273438 C 630.976562 436.800781 630.976562 436.199219 629.625 425.851562 C 628.800781 419.925781 628.273438 414.074219 628.351562 412.875 C 628.351562 411.601562 628.648438 407.25 628.949219 403.050781 C 629.476562 394.050781 628.425781 388.648438 624.148438 380.25 C 621.074219 374.101562 614.398438 366.449219 607.351562 360.976562 C 604.800781 359.101562 595.050781 353.925781 583.574219 348.449219 C 552.375 333.523438 534.601562 323.550781 523.800781 314.851562 C 518.324219 310.425781 514.5 306.300781 514.5 304.726562 C 514.5 304.273438 516.148438 303.75 518.175781 303.449219 C 520.273438 303.148438 524.550781 301.648438 527.773438 300 C 546.898438 290.398438 555.148438 267.675781 545.925781 249.601562 C 544.050781 245.925781 538.5 239.851562 535.125 237.75 L 532.726562 236.25 L 533.101562 231 C 534.375 213 522.75 197.023438 505.125 192.375 C 500.25 191.101562 491.324219 190.726562 485.625 191.476562 L 481.875 192 L 480 188.851562 C 477.148438 184.125 469.574219 176.699219 465.375 174.523438 C 457.273438 170.476562 445.949219 168.824219 437.550781 170.476562 L 434.476562 171.074219 L 433.949219 164.101562 C 433.273438 155.023438 430.726562 137.398438 429.300781 131.625 C 427.351562 124.125 423.148438 120 417.375 120 C 413.398438 120 411.148438 121.5 404.476562 128.550781 C 396.074219 137.398438 389.699219 145.5 380.851562 158.625 C 373.5 169.425781 368.699219 175.5 367.5 175.5 C 367.199219 175.5 366.75 173.699219 366.449219 171.449219 C 365.324219 161.625 358.273438 141.375 350.476562 125.25 C 346.949219 118.050781 345.375 115.726562 340.949219 111.300781 C 335.101562 105.523438 330.976562 103.5 324.824219 103.5 C 320.023438 103.5 315.824219 105.824219 308.925781 112.351562 C 286.648438 133.273438 271.351562 164.101562 266.851562 197.101562 L 265.949219 204 L 259.875 204 C 252.75 204 247.726562 205.351562 240.375 209.101562 C 233.25 212.773438 224.101562 221.925781 220.273438 229.273438 C 217.125 235.273438 214.5 244.5 214.5 249.449219 L 214.5 252.675781 L 208.949219 255.300781 C 198.75 260.175781 190.351562 268.050781 186 276.75 C 179.773438 289.125 180.898438 306.675781 188.625 316.800781 L 191.101562 320.101562 L 185.925781 323.625 C 173.25 332.25 166.5 344.25 166.5 358.125 C 166.5 368.398438 170.023438 377.023438 176.851562 383.398438 L 180.449219 386.773438 L 177.601562 390.449219 C 171.226562 398.625 166.574219 411.300781 166.5 420.523438 C 166.5 429.675781 170.101562 439.050781 176.398438 445.875 L 180.226562 450.074219 L 177.523438 455.476562 C 169.800781 471 168.148438 480 170.625 493.726562 C 171.824219 500.398438 174.976562 507.75 178.425781 511.648438 L 180.75 514.351562 L 178.050781 520.574219 C 173.699219 530.851562 172.199219 538.125 172.199219 549.375 C 172.199219 557.25 172.5 559.949219 173.699219 563.398438 L 175.273438 567.675781 L 170.851562 573.523438 C 168.449219 576.75 164.851562 582.601562 162.898438 586.5 C 160.949219 590.398438 159.226562 593.773438 159.148438 594 C 158.699219 594.675781 147.523438 582.601562 141.226562 574.726562 C 118.199219 545.773438 100.949219 515.25 89.476562 483 C 71.851562 433.351562 67.574219 381.226562 76.875 327.824219 C 90.300781 250.949219 131.476562 181.574219 190.800781 135.824219 C 225.300781 109.273438 261.523438 91.800781 303.75 81.449219 C 323.324219 76.648438 339.375 74.175781 361.125 72.449219 C 369.601562 71.773438 405.074219 72.75 414 73.875 Z M 328.125 127.199219 C 333.226562 129.675781 335.175781 132.074219 338.925781 140.699219 C 350.773438 168.074219 353.101562 192.226562 348.675781 241.800781 C 346.800781 263.101562 346.800781 263.625 349.125 265.875 C 351.523438 268.351562 355.351562 268.425781 357.601562 266.023438 C 358.5 265.050781 359.699219 262.050781 360.375 259.125 C 361.050781 256.199219 362.398438 251.324219 363.375 248.175781 C 366.148438 239.25 367.5 228.226562 368.023438 210.601562 L 368.476562 194.398438 L 373.425781 192.148438 C 388.125 185.476562 400.726562 187.425781 408.976562 197.625 C 410.925781 200.101562 412.875 202.199219 413.25 202.351562 C 413.625 202.5 416.023438 200.476562 418.648438 197.773438 C 426.449219 189.898438 436.125 186.148438 446.476562 186.976562 C 449.398438 187.199219 453.074219 188.101562 454.875 189 C 460.875 191.925781 468.75 202.199219 468.75 207.074219 C 468.75 208.125 469.199219 209.550781 469.726562 210.226562 C 470.550781 211.5 470.925781 211.425781 475.125 210 C 481.648438 207.675781 492.824219 207.148438 499.050781 208.800781 C 511.425781 212.175781 517.351562 225 513.074219 239.101562 C 510.976562 246.074219 511.050781 246.523438 513.976562 247.125 C 522.675781 248.851562 528.601562 252.75 530.25 257.699219 C 530.773438 259.125 531.148438 262.648438 531.148438 265.425781 C 531.148438 274.425781 526.574219 281.550781 518.699219 285.148438 C 515.550781 286.574219 513.601562 286.875 507.75 286.875 C 498.449219 286.875 494.175781 285 487.273438 277.875 C 484.125 274.648438 481.949219 272.925781 481.273438 273.226562 C 480.675781 273.449219 479.398438 275.25 478.425781 277.199219 C 474.375 285.226562 464.175781 292.5 454.875 294 C 449.699219 294.824219 443.25 294 438.976562 291.976562 C 435.074219 290.175781 430.199219 285 427.800781 280.125 C 425.324219 275.023438 423.824219 274.800781 421.199219 279.300781 C 418.199219 284.476562 412.273438 290.101562 407.625 292.199219 C 399.226562 296.101562 386.324219 294 378.824219 287.625 C 374.25 283.726562 372.074219 283.351562 369.824219 286.199219 C 366.898438 289.949219 368.25 295.273438 373.574219 300.75 C 383.175781 310.648438 403.050781 312.523438 417.898438 304.949219 L 423 302.398438 L 428.023438 304.949219 C 434.699219 308.25 441.601562 309.75 450.523438 309.75 C 462.226562 309.75 472.273438 306.601562 480.300781 300.375 L 484.050781 297.523438 L 488.699219 299.851562 C 492.976562 302.023438 493.5 302.476562 494.324219 305.398438 C 496.875 314.851562 505.425781 324.675781 519.148438 333.75 C 528.148438 339.675781 563.023438 357.75 577.875 364.125 C 597.226562 372.449219 606 378.375 608.625 384.976562 C 609.976562 388.351562 612.074219 398.398438 611.550781 398.925781 C 610.875 399.601562 602.773438 396.523438 595.726562 392.925781 C 586.351562 388.199219 582.449219 387.898438 578.550781 391.800781 C 576.300781 394.050781 576 394.800781 576 398.25 C 576 401.851562 576.300781 402.449219 578.773438 404.773438 C 580.351562 406.273438 587.101562 410.101562 595.125 414 C 606.601562 419.550781 608.851562 420.898438 609.601562 422.699219 C 612.976562 431.398438 609.601562 445.425781 602.773438 451.199219 C 598.875 454.5 591.675781 457.5 586.425781 457.949219 C 580.648438 458.476562 572.625 457.125 557.25 452.925781 C 551.25 451.351562 545.101562 450 543.523438 450 C 537.75 450 535.800781 455.476562 540.148438 459.675781 C 546.226562 465.601562 568.273438 473.25 579.523438 473.25 C 581.324219 473.25 582.75 473.625 582.75 474 C 582.75 475.351562 573.976562 481.273438 569.023438 483.226562 C 558.976562 487.273438 548.625 487.5 526.125 484.351562 C 508.425781 481.800781 492.375 482.101562 470.25 485.25 C 454.800781 487.5 450.675781 487.800781 436.875 487.800781 C 422.101562 487.875 420.601562 487.726562 413.023438 485.773438 C 398.324219 482.101562 387.824219 476.851562 374.550781 466.800781 C 368.925781 462.523438 367.574219 462.074219 365.699219 463.949219 C 363.148438 466.425781 364.5 470.398438 370.351562 477.976562 C 375.601562 484.875 382.5 490.125 393.375 495.375 C 407.550781 502.273438 416.398438 504.824219 429.976562 505.949219 C 434.625 506.324219 436.5 506.773438 436.5 507.449219 C 436.5 507.976562 435.824219 511.949219 435 516.226562 C 433.273438 525.148438 431.25 531.449219 428.925781 535.199219 L 427.351562 537.75 L 429.601562 540.601562 C 438.375 551.699219 442.050781 564.523438 440.324219 578.398438 C 439.351562 586.125 438.074219 589.273438 434.550781 593.175781 L 431.925781 596.101562 L 436.125 603.523438 C 441.824219 613.648438 443.324219 618.675781 443.773438 629.324219 C 444.375 643.5 440.925781 656.550781 435 662.023438 L 432.523438 664.351562 L 433.949219 668.773438 C 435.75 674.476562 435.75 684.824219 433.949219 691.5 C 432.148438 698.175781 428.175781 705.976562 423.75 711.449219 C 419.175781 717.226562 420.449219 717 388.050781 717 C 320.175781 717.074219 261.824219 706.648438 209.25 685.199219 C 182.925781 674.398438 155.851562 658.425781 142.125 645.601562 C 132.375 636.523438 129.675781 630.449219 133.949219 627.074219 C 137.023438 624.675781 146.324219 621.375 159.675781 618.074219 C 166.351562 616.351562 172.199219 614.773438 172.574219 614.550781 C 172.949219 614.324219 173.25 612.898438 173.25 611.476562 C 173.25 600.898438 180.824219 585.601562 191.773438 573.675781 L 196.050781 569.101562 L 193.726562 564.898438 C 189.824219 557.773438 188.625 546.375 190.800781 536.25 C 192 530.851562 195.824219 521.925781 199.875 515.25 C 201.300781 512.851562 202.5 510.449219 202.5 509.773438 C 202.5 509.175781 201.375 508.199219 200.101562 507.675781 C 196.125 506.023438 191.625 500.925781 189.824219 496.199219 C 185.023438 483.300781 188.175781 468.523438 199.125 453.375 C 201.449219 450.074219 203.550781 447 203.773438 446.476562 C 204 446.023438 201.75 444.074219 198.824219 442.125 C 189.375 435.898438 185.25 429.074219 185.25 419.699219 C 185.25 410.324219 189.75 400.5 198.601562 390.75 C 201.148438 387.898438 203.25 385.199219 203.25 384.75 C 203.25 384.300781 199.574219 380.324219 195.074219 375.898438 C 188.101562 369.074219 186.75 367.273438 185.625 363.824219 C 181.726562 351.824219 188.773438 340.199219 207.976562 327.074219 C 218.101562 320.101562 218.175781 319.726562 210.226562 313.726562 C 205.800781 310.425781 203.925781 308.398438 202.273438 305.25 C 200.25 301.425781 200.101562 300.675781 200.398438 294.375 C 200.625 288.675781 201 287.023438 202.875 283.648438 C 206.625 276.675781 214.648438 270.75 228.976562 264.148438 C 232.574219 262.425781 235.5 260.699219 235.5 260.25 C 235.5 259.800781 234.976562 257.699219 234.300781 255.675781 C 229.875 242.324219 239.699219 226.199219 254.925781 221.699219 C 257.175781 221.023438 260.625 220.5 262.648438 220.5 L 266.25 220.5 L 266.25 223.199219 C 266.25 232.800781 271.050781 253.726562 275.925781 265.726562 C 279.898438 275.625 286.875 288.375 289.273438 290.175781 C 293.398438 293.476562 300 291.148438 300 286.273438 C 300 285.074219 297.824219 278.699219 295.199219 272.023438 C 289.351562 257.101562 287.773438 252.074219 285.75 241.726562 C 281.398438 219.074219 282.449219 197.324219 288.898438 177 C 295.199219 157.273438 310.425781 132.898438 319.949219 127.425781 C 321.976562 126.300781 323.699219 125.324219 323.773438 125.324219 C 323.851562 125.25 325.875 126.148438 328.125 127.199219 Z M 416.175781 160.050781 C 417.226562 180.898438 416.625 182.773438 410.476562 178.050781 C 405.824219 174.449219 401.476562 172.574219 396.75 171.976562 C 394.648438 171.75 393 171.449219 393 171.300781 C 393 170.550781 408 148.875 410.851562 145.574219 L 414.300781 141.523438 L 414.898438 143.699219 C 415.273438 144.898438 415.875 152.25 416.175781 160.050781 Z M 416.175781 160.050781 "/>
    <path style=" stroke:none;fill-rule:nonzero;fill:rgb(0%,0%,0%);fill-opacity:1;" d="M 322.351562 162.523438 C 314.773438 171.148438 309.300781 200.625 310.648438 225.449219 C 311.773438 245.851562 320.101562 266.25 327.375 266.25 C 331.648438 266.25 331.648438 261.074219 327.375 246 C 322.050781 226.875 320.773438 213.976562 322.800781 197.625 C 325.726562 174.074219 326.398438 165.375 325.574219 163.273438 C 324.675781 160.949219 323.925781 160.726562 322.351562 162.523438 Z M 322.351562 162.523438 "/>
    <path style=" stroke:none;fill-rule:nonzero;fill:rgb(0%,0%,0%);fill-opacity:1;" d="M 444.976562 333.300781 C 437.023438 335.851562 432.300781 340.648438 431.851562 346.574219 C 431.625 349.050781 431.699219 349.125 434.324219 349.050781 L 437.023438 348.976562 L 437.476562 353.773438 C 438 360.300781 440.476562 364.949219 444.976562 368.023438 C 451.726562 372.601562 459.226562 372 464.699219 366.449219 C 468.148438 363 469.5 359.476562 469.5 353.476562 L 469.5 349.648438 L 472.5 350.023438 C 475.425781 350.398438 475.5 350.398438 475.5 348.300781 C 475.5 347.101562 474.824219 344.773438 474.074219 343.125 C 471 336.449219 464.476562 332.925781 454.5 332.550781 C 450.375 332.324219 447 332.625 444.976562 333.300781 Z M 444.976562 333.300781 "/>
  </g>
</svg>
