<?xml version="1.0" encoding="UTF-8"?>
<svg xmlns="http://www.w3.org/2000/svg" xmlns:xlink="http://www.w3.org/1999/xlink" width="1365px" height="1365px" viewBox="0 0 512 512" version="1.1">
  <g id="surface1">
    <path style=" stroke:none;fill-rule:nonzero;fill:rgb(0%,0%,0%);fill-opacity:1;" d="M 232.25 48.25 C 203.5 51.25 176.050781 59.898438 151.800781 73.601562 C 116.398438 93.601562 86.398438 125.949219 67.75 164.25 C 57.199219 186 51.25 205.300781 48.148438 228 C 46.851562 237.550781 46.851562 268.648438 48.148438 278.25 C 53.449219 317.699219 67.550781 350.898438 92.25 381.75 C 97.449219 388.25 105.300781 397 106 397 C 106.199219 397 106.550781 396.25 106.699219 395.351562 C 107.25 392.300781 110.351562 386.699219 113.75 382.550781 C 116.300781 379.398438 117.050781 378.148438 116.800781 377.351562 C 116.648438 376.75 116.101562 374.648438 115.550781 372.75 C 113.449219 365.398438 114.550781 357.300781 118.699219 348.75 C 120.851562 344.398438 120.898438 344.199219 120.050781 343.25 C 118.449219 341.5 116.601562 337.851562 115.199219 333.75 C 113.949219 330.199219 113.800781 329.101562 113.800781 323.5 C 113.851562 318.101562 114 316.699219 115.199219 313 C 116 310.648438 117.5 307 118.648438 304.898438 L 120.699219 301.050781 L 118.199219 298.398438 C 114.800781 294.800781 113.199219 291.898438 112 287.25 C 110.800781 282.601562 110.75 278.550781 111.75 273.75 C 112.601562 269.75 115.75 262.800781 118.050781 259.949219 L 119.601562 258 L 117.25 254.898438 C 113 249.199219 111.5 245.050781 111.5 238.75 C 111.5 230.351562 115.101562 223.148438 122.949219 215.898438 C 124.898438 214.101562 126.5 212.449219 126.5 212.300781 C 126.5 212.148438 125.699219 210.800781 124.75 209.351562 C 118.351562 199.699219 119.601562 188 128.050781 178.800781 C 131.148438 175.398438 136.949219 171.449219 141 169.949219 C 143.449219 169.050781 143.949219 168.699219 143.75 167.949219 C 143.25 166.449219 144.5 159.101562 145.800781 155.550781 C 148.300781 149 153.351562 143.550781 160.449219 139.800781 C 164.851562 137.5 168.351562 136.550781 173.550781 136.148438 L 177.898438 135.851562 L 178.5 131.300781 C 179.800781 121.75 183.800781 108.398438 187.851562 100.25 C 191 94 197.101562 84.101562 200.351562 80.050781 C 205.898438 73.101562 212.449219 68.800781 217.5 68.800781 C 220.949219 68.800781 222.949219 69.800781 226.25 73.25 C 232.5 79.800781 239.851562 96.601562 242.75 111 C 243.25 113.351562 243.699219 115.550781 243.800781 115.898438 C 244.050781 116.75 244.648438 116 252 106.25 C 268.351562 84.550781 275.648438 78.148438 281.199219 80.75 C 285.851562 82.949219 288.199219 90.898438 288.800781 106.550781 C 289.148438 114.851562 289.199219 115 290.199219 114.699219 C 296.75 112.601562 303.898438 113.300781 310.199219 116.648438 C 313.449219 118.398438 318.148438 122.449219 320 125.148438 L 321.148438 126.800781 L 326.699219 126.800781 C 335.449219 126.75 342.449219 129.5 348.300781 135.25 C 353.050781 139.898438 355.25 145.148438 355.851562 153.101562 C 356 155.550781 356.300781 157.5 356.550781 157.5 C 357.75 157.5 362.648438 162.898438 364.101562 165.898438 C 365.550781 168.851562 365.75 169.75 365.898438 174.25 C 366.199219 183.148438 364.148438 189 358.800781 194.25 C 355.648438 197.398438 350.148438 200.601562 345.148438 202.25 C 343.5 202.75 342.5 203.351562 342.5 203.851562 C 342.5 207.398438 364.851562 220.75 392 233.25 C 396.398438 235.300781 401.300781 237.851562 402.898438 238.898438 C 407.25 241.898438 413.148438 248.398438 415.199219 252.398438 C 418.5 258.898438 419.75 267.101562 418.351562 273 C 417.898438 274.75 417.648438 276.351562 417.75 276.5 C 418.449219 277.601562 419.550781 285.550781 419.550781 289.449219 C 419.601562 293.449219 419.351562 295.050781 418.050781 299.050781 C 415.75 306.199219 412.949219 309.851562 406.148438 314.351562 C 404.75 315.300781 403 317 402.25 318.101562 C 397.398438 325.398438 384.550781 334.25 375.75 336.300781 C 370.851562 337.449219 363.351562 337 353 334.949219 C 345.300781 333.398438 344.050781 333.300781 334 333.300781 C 323.800781 333.300781 322.75 333.351562 312.699219 335.148438 C 306.851562 336.148438 302 337 301.851562 337 C 301.75 337 301.5 339.101562 301.300781 341.601562 C 300.851562 347.398438 299.699219 353.148438 298.5 355.5 L 297.550781 357.351562 L 300.199219 362.601562 C 306.25 374.699219 307.101562 386.601562 302.550781 396.25 L 301.101562 399.351562 L 302.800781 402.25 C 305.101562 406.351562 307.300781 413.449219 307.949219 418.75 C 308.949219 427.050781 307 436.199219 302.949219 442.5 L 301 445.5 L 301.601562 449.050781 L 302.199219 452.550781 L 304 452.25 C 307.199219 451.648438 321.648438 446.648438 327.75 444 C 335.898438 440.5 350.601562 432.898438 356.898438 429 C 369.25 421.25 383.300781 410 395.5 398.148438 C 435.601562 359.25 458 304.300781 456.300781 249.25 C 455.648438 226.898438 452.351562 208.300781 445.648438 188.851562 C 442.101562 178.449219 439 171.25 433.550781 160.75 C 422.300781 139 410.550781 122.949219 393.300781 105.699219 C 361.601562 74.050781 320.949219 54.550781 274.5 48.699219 C 265.5 47.601562 241.300781 47.351562 232.25 48.25 Z M 232.25 48.25 "/>
    <path style=" stroke:none;fill-rule:nonzero;fill:rgb(0%,0%,0%);fill-opacity:1;" d="M 214.101562 84.851562 C 210.550781 86.601562 203.398438 96.25 199.050781 105.199219 C 192.550781 118.601562 188.898438 135.601562 189.648438 149 C 190.300781 160.25 193.550781 174.601562 198 185.699219 C 199.949219 190.601562 199.949219 193.648438 197.949219 195.101562 C 196.148438 196.449219 194.550781 195.699219 191.75 192.148438 C 187.398438 186.601562 182.699219 176 180.5 166.75 C 179.398438 162.300781 178 152.75 178 150.101562 L 178 148.398438 L 173.550781 148.601562 C 169.851562 148.75 168.601562 149.050781 165.898438 150.398438 C 162.050781 152.300781 158.898438 155.5 157.199219 159.25 C 155.5 162.898438 155.25 166.050781 156.25 170 C 157.648438 175.449219 157.648438 175.699219 156.648438 176.300781 C 156.101562 176.648438 153.949219 177.351562 151.851562 177.949219 C 143.398438 180.25 136.75 185.050781 134 190.75 C 132.199219 194.5 132.351562 198.949219 134.449219 203.199219 C 136.050781 206.5 136.949219 207.449219 141.199219 210.398438 C 144.5 212.699219 144.25 213.5 139 217.199219 C 133.300781 221.199219 127.648438 227 125.5 231 C 123.949219 233.949219 123.75 234.648438 123.75 238.25 C 123.75 243.800781 125.300781 246.949219 130.601562 252.050781 C 132.75 254.148438 134.5 255.949219 134.5 256.101562 C 134.5 256.300781 132.949219 258.5 131 261.050781 C 123.148438 271.550781 121 279.050781 124 285.851562 C 125.25 288.699219 129.148438 292.800781 132.398438 294.648438 C 133.898438 295.449219 135.199219 296.398438 135.300781 296.75 C 135.449219 297.050781 134.351562 299.300781 132.949219 301.75 C 130 306.75 127.398438 312.800781 126.199219 317.5 C 124.601562 323.851562 126 333.050781 129.050781 335.800781 C 129.550781 336.25 131.398438 337.101562 133.101562 337.699219 C 134.898438 338.300781 136.300781 339.101562 136.398438 339.550781 C 136.449219 339.949219 135.398438 342.050781 134 344.199219 C 125.050781 357.898438 123.949219 367.398438 130.050781 377.601562 L 131.148438 379.398438 L 127.898438 383.148438 C 121.351562 390.648438 118.800781 395.5 117.550781 402.949219 C 117.101562 405.648438 116.449219 408.25 116.050781 408.699219 C 115.699219 409.148438 113.800781 409.949219 111.800781 410.550781 C 109.851562 411.101562 102.898438 413.25 96.398438 415.300781 C 89.898438 417.351562 83.800781 419 82.851562 419 C 80.75 419 79.5 417.699219 79.5 415.550781 C 79.5 413.398438 82.851562 410.101562 87.351562 407.800781 C 90.199219 406.398438 97.800781 403.601562 102.25 402.300781 C 102.800781 402.148438 102.351562 402.148438 101.25 402.300781 C 97.898438 402.75 88.449219 406 84.449219 408.050781 C 74.449219 413.25 74.949219 417.75 87 429.199219 C 104.199219 445.550781 131.75 458.898438 165.898438 467.449219 C 188.449219 473.101562 210 476.050781 238.5 477.449219 C 258.699219 478.449219 265 478.550781 273 478.050781 C 281.148438 477.550781 281.25 477.5 282.398438 476.148438 C 284.199219 473.898438 287.800781 466.550781 289.050781 462.5 C 290.5 457.851562 290.648438 449.550781 289.351562 446.148438 L 288.550781 444.050781 L 290.351562 441.449219 C 295.101562 434.550781 296.699219 429.148438 296.351562 421.5 C 296.050781 414.949219 293.949219 408.25 290.398438 402.300781 C 288.148438 398.648438 288 398.148438 288.601562 397.148438 C 291.699219 392.101562 292.550781 390.300781 293.25 387.75 C 294.199219 384.050781 294.199219 380.75 293.25 376.300781 C 292 370.449219 289.550781 364.898438 286.648438 361.351562 C 285.148438 359.5 285.199219 359.050781 287.199219 354.25 C 289.101562 349.800781 290.5 343.851562 290.5 340.101562 L 290.5 337.699219 L 285.148438 337.101562 C 274.898438 335.949219 264.75 332.648438 258.101562 328.351562 C 248.75 322.300781 240.949219 311.851562 243.5 308.75 C 244.550781 307.5 245.601562 307.898438 250.148438 311.25 C 262.851562 320.601562 272.050781 324.25 286.148438 325.5 C 293.648438 326.199219 299.898438 325.699219 312.75 323.398438 C 321.050781 321.949219 322.601562 321.800781 332.75 321.800781 C 342.300781 321.75 344.5 321.898438 349.5 322.949219 C 357.25 324.5 368.351562 324.898438 373.449219 323.800781 C 378.101562 322.800781 382.75 320.648438 385.449219 318.25 C 386.550781 317.199219 387.5 316.199219 387.5 316 C 387.5 315.800781 385.898438 315.5 383.898438 315.300781 C 375.601562 314.550781 365.648438 310.75 360.851562 306.5 C 357.351562 303.398438 357.25 300.5 360.699219 299.601562 C 362.851562 299 365.601562 299.5 371 301.5 C 380.898438 305.148438 390.449219 306.050781 397.101562 304 C 405.050781 301.550781 408.699219 294.199219 406.898438 284.351562 C 406.351562 281.550781 406 280.800781 405 280.25 C 404.300781 279.898438 400.25 277.898438 396 275.851562 C 386.398438 271.199219 384.449219 269.449219 384.101562 265.300781 C 383.898438 262.648438 383.949219 262.449219 385.648438 260.75 C 386.75 259.648438 387.898438 259 388.699219 259 C 389.449219 259 394 261 398.851562 263.5 C 403.699219 265.949219 407.75 267.898438 407.75 267.851562 C 408.199219 267.25 406.25 259.648438 405 257.199219 C 402.398438 251.851562 400.148438 250.300781 383.5 242.199219 C 350.398438 226.101562 341.898438 221.148438 336.199219 214.851562 C 333.5 211.800781 331.851562 208.800781 330.800781 204.75 C 330.398438 203.101562 329.851562 201.699219 329.601562 201.601562 C 329.351562 201.550781 327.601562 200.449219 325.75 199.199219 C 322.101562 196.75 322.550781 196.699219 319.101562 199.898438 C 314.949219 203.648438 306.851562 206.449219 299.949219 206.5 C 295.5 206.5 289.351562 204.851562 285.898438 202.699219 L 283 200.949219 L 280.699219 202.5 C 279.449219 203.398438 277.148438 204.550781 275.601562 205.101562 C 271.949219 206.398438 264.148438 206.851562 260.449219 206 C 253.949219 204.449219 246.851562 199.398438 245.550781 195.398438 C 244.699219 192.75 245.601562 190.949219 248.148438 190.351562 C 249.851562 189.949219 250.148438 190.050781 251.851562 191.5 C 254.300781 193.699219 259.300781 195.949219 262.300781 196.300781 C 265.300781 196.648438 270.300781 195.5 273.25 193.75 C 276.050781 192.148438 279.199219 188.898438 281.148438 185.648438 C 283.5 181.699219 284.601562 182.050781 286.5 187.199219 C 287.898438 190.949219 290.199219 193.449219 293.851562 195.25 C 297.898438 197.300781 302.949219 197.351562 307.148438 195.398438 C 310.800781 193.699219 315.148438 189.5 317.75 185.300781 C 320.050781 181.5 320.5 181.449219 323.75 184.5 C 328.601562 189.101562 335.398438 191.898438 340.398438 191.300781 C 346.148438 190.648438 350.398438 187.5 352.949219 182 C 356.699219 173.851562 351.699219 165.050781 343.25 165 C 340.25 164.949219 340.101562 164.398438 342 160.648438 C 343.550781 157.648438 343.75 156.800781 343.75 153.5 C 343.699219 148.75 342.449219 145.949219 338.699219 142.550781 C 335.050781 139.199219 331.449219 137.851562 326.199219 137.800781 C 322.550781 137.75 321.851562 137.898438 318.449219 139.601562 C 315.199219 141.199219 314.601562 141.351562 313.5 140.851562 C 312.5 140.351562 312.199219 139.75 311.898438 137.601562 C 310.800781 130.199219 305.199219 125.148438 297.449219 124.601562 C 291.949219 124.199219 285.800781 126.550781 279.25 131.5 C 277.449219 132.851562 275.800781 134 275.648438 134 C 275.5 134 274 132.648438 272.398438 130.949219 C 268.351562 126.800781 264.5 125 259.75 125 C 255.449219 125 252.050781 125.898438 248.148438 127.949219 L 245.148438 129.550781 L 244.851562 142.148438 C 244.398438 163.300781 241.648438 174.550781 236.398438 177.148438 C 233.898438 178.398438 232.101562 177.851562 231.148438 175.648438 C 230.398438 173.851562 230.398438 173.898438 232.199219 161.75 C 234.25 147.898438 234.398438 127.648438 232.550781 116.25 C 230.398438 103.351562 225.601562 90.851562 220.800781 85.75 C 218.898438 83.75 216.898438 83.449219 214.101562 84.851562 Z M 217.101562 109 C 217.601562 111.148438 217.351562 113.800781 215.648438 124.5 C 214.601562 131 214.300781 134.550781 214.300781 141.25 C 214.300781 150.648438 214.449219 151.5 218.300781 164.398438 C 220.699219 172.351562 220.800781 174.050781 219 175 C 215.5 176.851562 209.25 169 206.648438 159.5 C 205.25 154.398438 205.398438 138.199219 206.898438 130.5 C 209.648438 116.699219 213.5 106.648438 215.898438 107.101562 C 216.351562 107.199219 216.898438 108.050781 217.101562 109 Z M 309.800781 221.199219 C 314.851562 223.5 318 227.449219 318 231.449219 C 318 233.800781 317 235 314.949219 235 C 313.800781 235 313.5 235.199219 313.5 236.101562 C 313.5 238.800781 311.75 243.25 310 245 C 305.75 249.25 298.449219 248.851562 294.550781 244.148438 C 292.851562 242.101562 291 237.550781 291 235.449219 C 291 234.050781 290.898438 234 288.75 234 C 286 234 285.300781 233 286.101562 230.351562 C 287.300781 226.398438 292.550781 221.300781 296.699219 220 C 297.550781 219.75 300.199219 219.601562 302.550781 219.699219 C 305.949219 219.851562 307.5 220.148438 309.800781 221.199219 Z M 309.800781 221.199219 "/>
    <path style=" stroke:none;fill-rule:nonzero;fill:rgb(0%,0%,0%);fill-opacity:1;" d="M 273.101562 98.75 C 269.5 102.601562 262 112.199219 262 112.898438 C 262 113.148438 262.851562 113.351562 263.898438 113.398438 C 267.550781 113.648438 272.398438 115.601562 275.648438 118.101562 L 277.5 119.601562 L 277.449219 108.648438 C 277.398438 102.648438 277.25 97.101562 277.050781 96.300781 L 276.75 94.851562 Z M 273.101562 98.75 "/>
  </g>
</svg>
